<?xml version="1.0" standalone="no"?><!DOCTYPE svg PUBLIC "-//W3C//DTD SVG 1.1//EN" "http://www.w3.org/Graphics/SVG/1.1/DTD/svg11.dtd" ><svg xmlns="http://www.w3.org/2000/svg"><metadata></metadata><defs><font id="Google:Roboto Condensed Light Italic:2016" horiz-adv-x="1593"><font-face font-family="Roboto Condensed Light" font-weight="300" font-stretch="normal" units-per-em="2048" panose-1="2 0 0 0 0 0 0 0 0 0" ascent="1900" descent="-500" x-height="0" bbox="-234 -471 1608 1861" underline-thickness="100" underline-position="-150" unicode-range="U+0021-2122" /><missing-glyph horiz-adv-x="813" d="M104 0 l0 1456 l595 0 l0 -1456 l-595 0 ZM184 1402 l216 -605 l215 605 l-431 0 ZM424 728 l229 -642 l0 1284 l-229 -642 ZM149 1362 l0 -1268 l226 634 l-226 634 ZM184 54 l431 0 l-215 605 l-216 -605 Z" /><glyph glyph-name="exclam" unicode="!" d="M418 1456 l-189 -1050 l-102 0 l176 1050 l115 0 ZM53 72 q3 31 23 56 q20 25 53 26 q35 1 53 -24.5 q18 -25.5 16 -56.5 q-2 -32 -23 -57 q-21 -25 -54 -26 q-35 -1 -52.5 24.5 q-17.5 25.5 -15.5 57.5 Z" /><glyph glyph-name="quotedbl" unicode="&quot;" d="M613 1536 l-23 -145 l-67 -309 l-82 0 l54 324 l21 130 l97 0 ZM385 1536 l-23 -145 l-68 -309 l-82 0 l55 326 l20 128 l98 0 Z" /><glyph glyph-name="numbersign" unicode="#" d="M465 0 l136 410 l-243 0 l-136 -410 l-92 0 l135 410 l-205 0 l17 96 l219 0 l143 437 l-225 0 l17 97 l239 0 l137 416 l94 0 l-137 -416 l243 0 l137 416 l93 0 l-137 -416 l181 0 l-17 -97 l-196 0 l-143 -437 l203 0 l-18 -96 l-217 0 l-135 -410 l-93 0 ZM389 506 l243 0 l143 437 l-243 0 l-143 -437 Z" /><glyph glyph-name="dollar" unicode="$" d="M818 370 q-13 -162 -110 -266 q-97 -104 -258 -123 l-33 -189 l-93 0 l34 190 q-169 24 -227.5 154 q-58.5 130 -44.5 283 l110 0 q-11 -118 33.5 -224 q44.5 -106 184.5 -109 q123 -2 202.5 81.5 q79.5 83.5 91.5 199.5 q12 116 -46 187 q-58 71 -157 119 q-135 66 -210 160 q-75 94 -63 254 q13 157 106 263.5 q93 106.5 251 125.5 l35 202 l94 0 l-36 -205 q106 -21 158.5 -92 q52.5 -71 66.5 -166 q14 -95 5 -188 l-109 0 q7 69 -4 147.5 q-11 78.5 -53.5 135 q-42.5 56.5 -130.5 59.5 q-122 3 -192 -82.5 q-70 -85.5 -81 -197.5 q-12 -120 45.5 -188.5 q57.5 -68.5 160.5 -118.5 q135 -65 209 -159.5 q74 -94.5 61 -252.5 Z" /><glyph glyph-name="percent" unicode="%" d="M196 1099 l7 76 q12 109 79.5 208 q67.5 99 191.5 95 q119 -3 163.5 -102.5 q44.5 -99.5 37.5 -199.5 l-8 -77 q-12 -107 -78.5 -205 q-66.5 -98 -189.5 -95 q-118 3 -164 101 q-46 98 -39 199 ZM293 1176 l-7 -80 q-5 -62 16.5 -134.5 q21.5 -72.5 102.5 -74.5 q84 -2 124.5 70 q40.5 72 48.5 141 l8 79 q5 63 -16 137 q-21 74 -102 76 q-84 2 -125.5 -70.5 q-41.5 -72.5 -49.5 -143.5 ZM1070 1257 l-771 -1135 l-64 54 l773 1132 l62 -51 ZM647 279 l7 77 q12 107 79.5 206 q67.5 99 190.5 96 q119 -3 164.5 -101.5 q45.5 -98.5 37.5 -199.5 l-7 -78 q-12 -107 -78.5 -205.5 q-66.5 -98.5 -189.5 -95.5 q-119 3 -165 101.5 q-46 98.5 -39 199.5 ZM745 357 l-7 -81 q-5 -63 16 -136 q21 -73 103 -75 q84 -2 124.5 70.5 q40.5 72.5 48.5 142.5 l8 80 q5 64 -16 137 q-21 73 -103 75 q-85 3 -126 -69.5 q-41 -72.5 -48 -143.5 Z" /><glyph glyph-name="ampersand" unicode="&amp;" d="M809 0 l-74 141 q-69 -69 -155 -116 q-86 -47 -187 -45 q-164 3 -250 114.5 q-86 111.5 -72 269.5 q12 139 100.5 241 q88.5 102 193.5 181 l13 9 q-38 81 -65.5 165.5 q-27.5 84.5 -19.5 176.5 q11 131 90 237.5 q79 106.5 225 103.5 q116 -3 176.5 -86.5 q60.5 -83.5 52.5 -193.5 q-7 -100 -65.5 -177 q-58.5 -77 -132.5 -138 l-128 -102 l243 -453 q48 75 77.5 156 q29.5 81 43.5 169 l99 0 q-15 -117 -54 -222.5 q-39 -105.5 -111 -198.5 l123 -232 l-123 0 ZM402 1141 q-8 -71 12.5 -140.5 q20.5 -69.5 49.5 -133.5 l116 94 q57 47 100.5 104.5 q43.5 57.5 50.5 133.5 q6 65 -26.5 120 q-32.5 55 -104.5 56 q-93 1 -141 -76.5 q-48 -77.5 -57 -157.5 ZM184 364 q-14 -111 40.5 -194 q54.5 -83 174.5 -85 q86 -2 156.5 43.5 q70.5 45.5 127.5 103.5 l-250 468 q-4 6 -7 14 l-42 -35 q-68 -60 -128.5 -140.5 q-60.5 -80.5 -71.5 -174.5 Z" /><glyph glyph-name="quotesingle" unicode="&#39;" d="M368 1536 l-23 -145 l-64 -302 l-90 0 l54 308 l22 139 l101 0 Z" /><glyph glyph-name="parenleft" unicode="(" d="M128 570 l2 16 q28 181 90.5 384.5 q62.5 203.5 170.5 381.5 q108 178 274 282 l17 -84 q-137 -111 -225 -272 q-88 -161 -138.5 -341 q-50.5 -180 -76.5 -346 l-3 -20 q-20 -136 -28 -319 q-8 -183 26.5 -357.5 q34.5 -174.5 140.5 -285.5 l-33 -78 q-130 119 -183 303 q-53 184 -55 381 q-2 197 21 355 Z" /><glyph glyph-name="parenright" unicode=")" d="M446 593 l-3 -15 q-28 -183 -89.5 -386 q-61.5 -203 -169.5 -380 q-108 -177 -274 -283 l-18 79 q138 112 225.5 274.5 q87.5 162.5 138 343 q50.5 180.5 76.5 347.5 l3 20 q20 137 27 319.5 q7 182.5 -27.5 356.5 q-34.5 174 -139.5 287 l34 76 q129 -117 182 -302 q53 -185 55 -383 q2 -198 -20 -354 Z" /><glyph glyph-name="asterisk" unicode="*" d="M156 707 l262 296 l-304 107 l48 99 l302 -123 l61 370 l105 0 l-73 -367 l334 124 l14 -109 l-345 -113 l168 -296 l-90 -61 l-154 305 l-250 -301 l-78 69 Z" /><glyph glyph-name="plus" unicode="+" d="M900 627 l-354 0 l-84 -481 l-112 0 l84 481 l-349 0 l20 115 l349 0 l81 464 l111 0 l-81 -464 l356 0 l-21 -115 Z" /><glyph glyph-name="comma" unicode="," d="M195 190 l-22 -139 q-32 -195 -189 -325 l-67 55 q50 59 86 123.5 q36 64.5 50 142.5 l25 143 l117 0 Z" /><glyph glyph-name="hyphen" unicode="-" d="M467 694 l-18 -104 l-394 0 l19 104 l393 0 Z" /><glyph glyph-name="period" unicode="." d="M50 74 q2 34 27 59.5 q25 25.5 60 26.5 q36 1 59.5 -24.5 q23.5 -25.5 20.5 -61.5 q-3 -35 -28.5 -59 q-25.5 -24 -60.5 -25 q-36 -1 -58.5 23.5 q-22.5 24.5 -19.5 60.5 Z" /><glyph glyph-name="slash" unicode="/" d="M781 1455 l-762 -1579 l-107 -1 l772 1580 l97 0 Z" /><glyph glyph-name="zero" unicode="0" d="M892 853 l-38 -244 q-15 -96 -43 -206.5 q-28 -110.5 -79.5 -208.5 q-51.5 -98 -134.5 -158 q-83 -60 -207 -56 q-117 3 -179 69 q-62 66 -84.5 164.5 q-22.5 98.5 -20.5 204.5 q2 106 14 190 l37 245 q14 96 43 206 q29 110 81 206.5 q52 96.5 135 156 q83 59.5 206 56.5 q117 -4 179.5 -69 q62.5 -65 85 -163 q22.5 -98 20 -203 q-2.5 -105 -14.5 -190 ZM742 594 l43 276 q8 57 13.5 140 q5.5 83 -5 165 q-10.5 82 -52 138.5 q-41.5 56.5 -127.5 60.5 q-126 5 -195.5 -82.5 q-69.5 -87.5 -102.5 -208.5 q-33 -121 -46 -214 l-43 -276 q-7 -55 -13 -139 q-6 -84 5 -167.5 q11 -83.5 52 -141.5 q41 -58 127 -62 q125 -5 195 84.5 q70 89.5 102.5 211.5 q32.5 122 46.5 215 Z" /><glyph glyph-name="one" unicode="1" d="M738 1462 l-250 -1462 l-110 0 l226 1305 l-345 -147 l22 122 l435 182 l22 0 Z" /><glyph glyph-name="two" unicode="2" d="M803 104 l-17 -104 l-752 0 l16 99 l467 537 q81 93 165.5 205.5 q84.5 112.5 99.5 240.5 q13 104 -30 196 q-43 92 -162 95 q-144 4 -216.5 -104.5 q-72.5 -108.5 -92.5 -231.5 l-108 -1 q21 170 127.5 307.5 q106.5 137.5 295.5 133.5 q164 -4 239.5 -117.5 q75.5 -113.5 60.5 -266.5 q-15 -154 -112.5 -287.5 q-97.5 -133.5 -195.5 -244.5 l-400 -457 l615 0 Z" /><glyph glyph-name="three" unicode="3" d="M468 689 l-109 1 l17 105 l96 -1 q130 1 217 81 q87 80 100 210 q10 106 -32.5 196 q-42.5 90 -164.5 93 q-131 3 -202.5 -90.5 q-71.5 -93.5 -91.5 -208.5 l-107 -1 q20 162 126 284.5 q106 122.5 282 118.5 q167 -4 240.5 -123.5 q73.5 -119.5 59.5 -273.5 q-10 -116 -79.5 -202.5 q-69.5 -86.5 -172.5 -134.5 q103 -45 139 -139.5 q36 -94.5 27 -199.5 q-14 -173 -124.5 -301 q-110.5 -128 -294.5 -123 q-174 4 -256.5 129 q-82.5 125 -69.5 286 l110 0 q-9 -114 42.5 -210.5 q51.5 -96.5 180.5 -100.5 q139 -4 215 92 q76 96 87 224 q11 126 -47 205.5 q-58 79.5 -188 83.5 Z" /><glyph glyph-name="four" unicode="4" d="M43 437 l719 1019 l123 0 l-171 -985 l181 0 l-18 -104 l-181 0 l-64 -367 l-111 0 l64 367 l-551 0 l9 70 ZM184 471 l419 0 l140 804 l-40 -61 l-519 -743 Z" /><glyph glyph-name="five" unicode="5" d="M306 721 l-88 27 l167 708 l601 0 l-18 -113 l-503 0 l-123 -488 q102 79 223 78 q124 -1 190 -74 q66 -73 87.5 -180 q21.5 -107 12.5 -208 q-10 -120 -57 -234.5 q-47 -114.5 -137 -188 q-90 -73.5 -227 -69.5 q-170 4 -242.5 128.5 q-72.5 124.5 -69.5 276.5 l104 -1 q0 -108 44 -202 q44 -94 170 -98 q105 -3 169 57.5 q64 60.5 95.5 151.5 q31.5 91 39.5 178 q7 73 -6.5 154 q-13.5 81 -60 138.5 q-46.5 57.5 -138.5 59.5 q-72 2 -127.5 -26 q-55.5 -28 -105.5 -75 Z" /><glyph glyph-name="six" unicode="6" d="M846 485 q-11 -114 -59.5 -232.5 q-48.5 -118.5 -137.5 -197.5 q-89 -79 -223 -76 q-137 4 -209 92 q-72 88 -94 211.5 q-22 123.5 -9 233.5 l17 127 q28 196 103 386 q75 190 217 314.5 q142 124.5 372 124.5 l18 0 l-11 -107 l-13 0 q-169 1 -278.5 -82.5 q-109.5 -83.5 -175.5 -215 q-66 -131.5 -104 -274.5 q57 74 133.5 122 q76.5 48 173.5 45 q123 -3 186.5 -79 q63.5 -76 83 -184.5 q19.5 -108.5 10.5 -207.5 ZM225 513 q-8 -75 1.5 -175 q9.5 -100 56.5 -176 q47 -76 150 -79 q100 -3 164 63 q64 66 97 160 q33 94 42 174 q7 72 -3.5 157.5 q-10.5 85.5 -54 148.5 q-43.5 63 -137.5 66 q-98 3 -189 -70 q-91 -73 -115 -168 l-12 -101 Z" /><glyph glyph-name="seven" unicode="7" d="M998 1456 l-8 -70 l-717 -1386 l-120 0 l712 1352 l-667 0 l17 104 l783 0 Z" /><glyph glyph-name="eight" unicode="8" d="M825 396 q-15 -177 -132 -299 q-117 -122 -301 -118 q-170 5 -253.5 121.5 q-83.5 116.5 -69.5 278.5 q12 132 88.5 227 q76.5 95 196.5 146 q-80 53 -110.5 140.5 q-30.5 87.5 -22.5 179.5 q14 165 118.5 287 q104.5 122 280.5 118 q162 -5 236 -121.5 q74 -116.5 61 -265.5 q-11 -120 -79 -207.5 q-68 -87.5 -174 -138.5 q94 -53 132 -149 q38 -96 29 -199 ZM806 1091 q10 97 -36 187.5 q-46 90.5 -158 94.5 q-125 4 -197.5 -91 q-72.5 -95 -83.5 -209 q-10 -99 34.5 -185.5 q44.5 -86.5 157.5 -89.5 q123 -3 197.5 88.5 q74.5 91.5 85.5 204.5 ZM715 395 q11 110 -42.5 203.5 q-53.5 93.5 -176.5 97.5 q-135 4 -219 -94.5 q-84 -98.5 -97 -224.5 q-11 -114 41.5 -202.5 q52.5 -88.5 177.5 -91.5 q136 -3 219.5 90.5 q83.5 93.5 96.5 221.5 Z" /><glyph glyph-name="nine" unicode="9" d="M870 781 q-27 -196 -98 -378 q-71 -182 -209 -298.5 q-138 -116.5 -366 -116.5 l-25 0 l13 107 l18 0 q175 0 281.5 80 q106.5 80 167 210 q60.5 130 96.5 279 q-56 -77 -133.5 -133 q-77.5 -56 -178.5 -53 q-122 3 -185 82.5 q-63 79.5 -82.5 190.5 q-19.5 111 -9.5 208 q11 115 60.5 236 q49.5 121 139.5 203 q90 82 226 79 q150 -4 218.5 -101 q68.5 -97 82 -231.5 q13.5 -134.5 0.5 -249.5 l-16 -114 ZM268 964 q-7 -68 3 -156.5 q10 -88.5 53 -155.5 q43 -67 134 -70 q101 -3 192.5 77 q91.5 80 117.5 175 l8 74 q8 75 4 183.5 q-4 108.5 -47 193 q-43 84.5 -153 87.5 q-101 3 -167 -65 q-66 -68 -101 -164.5 q-35 -96.5 -44 -178.5 Z" /><glyph glyph-name="colon" unicode=":" d="M35 74 q2 34 27 59.5 q25 25.5 60 26.5 q36 1 59.5 -24.5 q23.5 -25.5 20.5 -61.5 q-3 -35 -28.5 -59 q-25.5 -24 -60.5 -25 q-36 -1 -58.5 23.5 q-22.5 24.5 -19.5 60.5 ZM197 996 q2 34 27 59.5 q25 25.5 60 26.5 q36 1 59.5 -24.5 q23.5 -25.5 20.5 -61.5 q-3 -35 -28.5 -59 q-25.5 -24 -60.5 -25 q-36 -1 -58.5 23.5 q-22.5 24.5 -19.5 60.5 Z" /><glyph glyph-name="semicolon" unicode=";" d="M186 996 q2 34 27 59.5 q25 25.5 60 26.5 q36 1 59.5 -24.5 q23.5 -25.5 20.5 -61.5 q-3 -35 -28.5 -59 q-25.5 -24 -60.5 -25 q-36 -1 -58.5 23.5 q-22.5 24.5 -19.5 60.5 ZM197 190 l-22 -139 q-32 -195 -189 -325 l-67 55 q50 59 86 123.5 q36 64.5 50 142.5 l25 143 l117 0 Z" /><glyph glyph-name="less" unicode="&lt;" d="M695 228 l-611 379 l16 102 l742 379 l-25 -135 l-611 -302 l508 -298 l-19 -125 Z" /><glyph glyph-name="equal" unicode="=" d="M882 937 l-20 -109 l-682 0 l19 109 l683 0 ZM811 526 l-20 -109 l-683 0 l20 109 l683 0 Z" /><glyph glyph-name="greater" unicode="&gt;" d="M202 1086 l628 -378 l-16 -102 l-758 -380 l24 134 l626 304 l-523 300 l19 122 Z" /><glyph glyph-name="question" unicode="?" d="M399 405 l-101 -1 q14 115 58.5 199 q44.5 84 126.5 166 q75 76 133.5 153.5 q58.5 77.5 70.5 187.5 q10 86 -19.5 171.5 q-29.5 85.5 -134.5 88.5 q-110 3 -170 -77 q-60 -80 -79 -176 l-108 0 q21 144 114 254 q93 110 252 106 q152 -4 212 -117.5 q60 -113.5 46 -248.5 q-13 -136 -90 -239 q-77 -103 -172 -192 q-61 -57 -92.5 -125.5 q-31.5 -68.5 -46.5 -149.5 ZM219 72 q2 30 22.5 55.5 q20.5 25.5 53.5 26.5 q34 1 52.5 -24.5 q18.5 -25.5 16.5 -57.5 q-3 -31 -23.5 -56 q-20.5 -25 -54.5 -26 q-34 -1 -52 24.5 q-18 25.5 -15 57.5 Z" /><glyph glyph-name="at" unicode="@" d="M887 -366 q-67 -46 -148 -67 q-81 -21 -161 -20 q-187 2 -296 91.5 q-109 89.5 -157 230 q-48 140.5 -51.5 300.5 q-3.5 160 21.5 304 q28 161 95 329 q67 168 173.5 309.5 q106.5 141.5 253.5 227 q147 85.5 335 82.5 q186 -3 294.5 -88.5 q108.5 -85.5 157 -220.5 q48.5 -135 52 -291.5 q3.5 -156.5 -20.5 -302.5 q-17 -102 -61.5 -230 q-44.5 -128 -127 -220 q-82.5 -92 -212.5 -89 q-84 3 -125.5 58.5 q-41.5 55.5 -44.5 132.5 q-44 -69 -107.5 -131.5 q-63.5 -62.5 -155.5 -60.5 q-103 3 -137.5 85.5 q-34.5 82.5 -31 186 q3.5 103.5 15.5 170.5 q13 79 45.5 177.5 q32.5 98.5 85.5 189 q53 90.5 128.5 148 q75.5 57.5 177.5 55.5 q69 -2 119 -32 q50 -30 97 -78 l-130 -570 q-7 -37 -10 -94 q-3 -57 15 -102.5 q18 -45.5 76 -48.5 q101 -4 162 79 q61 83 92.5 192 q31.5 109 43.5 182 q22 130 24 269.5 q2 139.5 -35 261 q-37 121.5 -130.5 198 q-93.5 76.5 -262.5 79.5 q-167 4 -297 -74.5 q-130 -78.5 -224 -207.5 q-94 -129 -153 -280 q-59 -151 -85 -292 q-22 -120 -23.5 -263 q-1.5 -143 35.5 -272.5 q37 -129.5 128.5 -212.5 q91.5 -83 255.5 -85 q75 -1 147.5 20 q72.5 21 137.5 57 l19 -82 ZM548 420 q-8 -43 -16.5 -123 q-8.5 -80 10 -147.5 q18.5 -67.5 89.5 -71.5 q95 -6 160 83.5 q65 89.5 88 166.5 l124 524 q-49 43 -114 46 q-112 5 -181.5 -80.5 q-69.5 -85.5 -107 -200.5 q-37.5 -115 -52.5 -197 Z" /><glyph glyph-name="A" unicode="a" d="M-64 0 l703 1456 l106 0 l197 -1456 l-114 0 l-50 407 l-527 0 l-193 -407 l-122 0 ZM301 514 l463 0 l-96 778 l-367 -778 Z" /><glyph glyph-name="B" unicode="b" d="M920 419 q-15 -187 -135 -304 q-120 -117 -310 -115 l-412 0 l252 1456 l350 -1 q172 -4 259.5 -102 q87.5 -98 71.5 -270 q-11 -116 -75 -199 q-64 -83 -169 -128 q102 -37 139 -137.5 q37 -100.5 29 -199.5 ZM410 1349 l-95 -544 l250 -2 q132 1 218 76 q86 75 99 208 q26 253 -220 261 l-252 1 ZM807 418 q12 110 -35.5 193 q-47.5 83 -167.5 88 l-306 1 l-103 -593 l285 -2 q140 1 226 88.5 q86 87.5 101 224.5 Z" /><glyph glyph-name="C" unicode="c" d="M877 453 l108 1 q-38 -206 -159 -344 q-121 -138 -347 -131 q-160 4 -241 99 q-81 95 -103 231.5 q-22 136.5 -5 267.5 l50 312 q22 146 86 282.5 q64 136.5 176.5 222.5 q112.5 86 279.5 83 q211 -5 291 -145.5 q80 -140.5 70 -331.5 l-114 0 q6 143 -41.5 254 q-47.5 111 -212.5 116 q-134 4 -221 -68.5 q-87 -72.5 -134.5 -184.5 q-47.5 -112 -65.5 -226 l-49 -315 q-13 -97 -4.5 -209.5 q8.5 -112.5 64 -194 q55.5 -81.5 182.5 -86.5 q182 -8 266 99 q84 107 124 268 Z" /><glyph glyph-name="D" unicode="d" d="M63 0 l252 1456 l325 -1 q164 -4 260 -87.5 q96 -83.5 131 -214.5 q35 -131 16 -279 l-45 -292 q-38 -246 -190 -415.5 q-152 -169.5 -416 -166.5 l-333 0 ZM637 1348 l-227 1 l-215 -1242 l205 -1 q216 -1 337 137 q121 138 152 339 l46 295 q15 115 -5 221.5 q-20 106.5 -90 176 q-70 69.5 -203 73.5 Z" /><glyph glyph-name="E" unicode="e" d="M63 0 l252 1456 l738 0 l-19 -107 l-624 0 l-95 -545 l548 0 l-19 -107 l-547 0 l-102 -590 l630 0 l-20 -107 l-742 0 Z" /><glyph glyph-name="F" unicode="f" d="M62 0 l253 1456 l737 0 l-19 -107 l-623 0 l-98 -562 l543 0 l-19 -108 l-542 0 l-118 -679 l-114 0 Z" /><glyph glyph-name="G" unicode="g" d="M1044 693 l-82 -523 q-79 -99 -199.5 -146 q-120.5 -47 -244.5 -45 q-163 2 -252 91 q-89 89 -117.5 223 q-28.5 134 -10.5 273 l53 335 q23 150 86.5 283 q63.5 133 176.5 214.5 q113 81.5 283 77.5 q193 -5 283.5 -126 q90.5 -121 84.5 -305 l-114 1 q3 135 -55 227 q-58 92 -206 96 q-136 5 -223 -63 q-87 -68 -135 -176.5 q-48 -108.5 -66 -226.5 l-53 -338 q-14 -104 0.5 -214 q14.5 -110 76.5 -186 q62 -76 193 -78 q178 -3 323 121 l67 379 l-310 0 l19 106 l422 0 Z" /><glyph glyph-name="H" unicode="h" d="M835 0 l122 697 l-660 0 l-121 -697 l-114 0 l253 1456 l114 0 l-114 -652 l660 0 l113 652 l115 0 l-253 -1456 l-115 0 Z" /><glyph glyph-name="I" unicode="i" d="M449 1456 l-253 -1456 l-114 0 l253 1456 l114 0 Z" /><glyph glyph-name="J" unicode="j" d="M660 433 l174 1023 l114 0 l-175 -1022 q-16 -115 -67.5 -221 q-51.5 -106 -141 -172 q-89.5 -66 -220.5 -63 q-183 5 -251 133 q-68 128 -51 291 l114 0 q-12 -112 25.5 -211.5 q37.5 -99.5 171.5 -104.5 q96 -3 159.5 50 q63.5 53 99.5 134.5 q36 81.5 48 162.5 Z" /><glyph glyph-name="K" unicode="k" d="M813 0 l-346 717 l-202 -200 l-89 -517 l-114 0 l253 1456 l114 0 l-134 -765 l188 195 l531 570 l149 0 l-611 -653 l389 -803 l-128 0 Z" /><glyph glyph-name="L" unicode="l" d="M777 107 l-19 -107 l-695 0 l252 1456 l115 0 l-235 -1349 l582 0 Z" /><glyph glyph-name="M" unicode="m" d="M667 180 l649 1276 l152 0 l-253 -1456 l-114 0 l111 637 l116 612 l-643 -1249 l-88 0 l-212 1262 l-100 -632 l-109 -630 l-114 0 l253 1456 l146 0 l206 -1276 Z" /><glyph glyph-name="N" unicode="n" d="M1207 1456 l-253 -1456 l-111 0 l-450 1243 l-216 -1243 l-115 0 l253 1456 l111 0 l451 -1243 l216 1243 l114 0 Z" /><glyph glyph-name="O" unicode="o" d="M1091 885 l-50 -314 q-23 -150 -87 -287.5 q-64 -137.5 -177.5 -223.5 q-113.5 -86 -285.5 -81 q-162 4 -247.5 94 q-85.5 90 -111 225 q-25.5 135 -7.5 272 l50 315 q23 148 87.5 285.5 q64.5 137.5 178 224 q113.5 86.5 284.5 81.5 q164 -4 249.5 -94 q85.5 -90 110 -224.5 q24.5 -134.5 6.5 -272.5 ZM928 570 l50 319 q14 105 2.5 214 q-11.5 109 -71.5 184.5 q-60 75.5 -191 79.5 q-138 4 -226.5 -67 q-88.5 -71 -137 -183 q-48.5 -112 -65.5 -230 l-50 -318 q-13 -104 -1 -213.5 q12 -109.5 71.5 -186 q59.5 -76.5 189.5 -81.5 q140 -4 228 67 q88 71 136 183.5 q48 112.5 65 231.5 Z" /><glyph glyph-name="P" unicode="p" d="M585 591 l-306 1 l-103 -592 l-114 0 l253 1456 l404 -1 q185 -6 268.5 -129 q83.5 -123 66.5 -298 q-19 -199 -143 -318.5 q-124 -119.5 -326 -118.5 ZM410 1349 l-113 -650 l293 -2 q151 1 242.5 92.5 q91.5 91.5 107.5 237.5 q14 124 -37 219.5 q-51 95.5 -188 101.5 l-305 1 Z" /><glyph glyph-name="Q" unicode="q" d="M902 -182 l-86 -74 l-196 252 q-73 -17 -136 -16 q-162 3 -247 94 q-85 91 -109.5 226.5 q-24.5 135.5 -6.5 270.5 l49 314 q23 149 87.5 286 q64.5 137 178.5 223.5 q114 86.5 285 81.5 q164 -4 249.5 -93.5 q85.5 -89.5 110 -224.5 q24.5 -135 6.5 -273 l-50 -314 q-25 -161 -93 -302.5 q-68 -141.5 -214 -225.5 l172 -225 ZM925 571 l49 318 q14 105 2.5 214 q-11.5 109 -71.5 184.5 q-60 75.5 -191 79.5 q-138 4 -226.5 -67 q-88.5 -71 -137 -183 q-48.5 -112 -65.5 -230 l-49 -317 q-14 -103 -2.5 -213 q11.5 -110 71 -187 q59.5 -77 189.5 -82 q140 -4 228.5 67 q88.5 71 136.5 183.5 q48 112.5 66 232.5 Z" /><glyph glyph-name="R" unicode="r" d="M788 0 l-177 606 l-332 0 l-105 -606 l-114 0 l253 1456 l380 -1 q185 -6 270.5 -125 q85.5 -119 69.5 -295 q-14 -142 -95 -249.5 q-81 -107.5 -216 -154.5 l188 -618 l-1 -13 l-121 0 ZM408 1349 l-110 -636 l288 -2 q140 2 229 96.5 q89 94.5 104 228.5 q14 126 -39.5 216.5 q-53.5 90.5 -189.5 95.5 l-282 1 Z" /><glyph glyph-name="S" unicode="s" d="M788 367 q16 135 -61 202.5 q-77 67.5 -191 113.5 q-140 57 -238 149 q-98 92 -83 259 q15 177 146.5 283.5 q131.5 106.5 304.5 101.5 q183 -4 273.5 -134 q90.5 -130 73.5 -301 l-113 0 q13 126 -43.5 225.5 q-56.5 99.5 -197.5 102.5 q-127 3 -221 -72 q-94 -75 -109 -203 q-15 -126 64.5 -192.5 q79.5 -66.5 183.5 -107.5 q149 -58 245 -154.5 q96 -96.5 81 -270.5 q-16 -183 -150 -288.5 q-134 -105.5 -313 -101.5 q-190 5 -293.5 129 q-103.5 124 -86.5 309 l114 0 q-14 -140 56 -233.5 q70 -93.5 216 -97.5 q130 -3 228 72.5 q98 75.5 114 208.5 Z" /><glyph glyph-name="T" unicode="t" d="M189 1349 l20 107 l916 0 l-19 -107 l-401 0 l-234 -1349 l-114 0 l234 1349 l-402 0 Z" /><glyph glyph-name="U" unicode="u" d="M1024 1456 l114 0 l-175 -1024 q-29 -202 -153 -330.5 q-124 -128.5 -338 -123.5 q-201 4 -286.5 133 q-85.5 129 -63.5 319 l174 1026 l113 0 l-174 -1027 q-15 -141 38.5 -239.5 q53.5 -98.5 207.5 -103.5 q164 -6 255.5 91.5 q91.5 97.5 113.5 251.5 l174 1027 Z" /><glyph glyph-name="V" unicode="v" d="M1169 1456 l-670 -1456 l-106 0 l-214 1456 l120 0 l167 -1274 l0 -18 l7 18 l568 1274 l128 0 Z" /><glyph glyph-name="W" unicode="w" d="M1608 1456 l-528 -1456 l-108 0 l-86 1110 l-7 156 l-47 -133 l-449 -1133 l-107 0 l-73 1456 l113 0 l46 -1063 l0 -205 l74 202 l419 1066 l101 0 l82 -1075 l9 -196 l70 216 l373 1055 l118 0 Z" /><glyph glyph-name="X" unicode="x" d="M340 1456 l228 -611 l419 611 l141 0 l-506 -723 l284 -733 l-128 0 l-236 631 l-434 -631 l-141 0 l522 745 l-277 711 l128 0 Z" /><glyph glyph-name="Y" unicode="y" d="M315 1456 l211 -788 l489 788 l137 0 l-587 -915 l-94 -541 l-115 0 l97 555 l-265 901 l127 0 Z" /><glyph glyph-name="Z" unicode="z" d="M240 1349 l19 107 l813 0 l-17 -96 l-914 -1253 l723 0 l-19 -107 l-858 0 l18 101 l911 1248 l-676 0 Z" /><glyph glyph-name="bracketleft" unicode="[" d="M594 1664 l-17 -104 l-167 0 l-277 -1768 l169 0 l-17 -104 l-278 0 l308 1976 l279 0 Z" /><glyph glyph-name="backslash" unicode="\" d="M429 -125 l-221 1581 l102 0 l221 -1581 l-102 0 Z" /><glyph glyph-name="bracketright" unicode="]" d="M170 1560 l17 104 l279 0 l-309 -1976 l-280 0 l17 104 l169 0 l276 1768 l-169 0 Z" /><glyph glyph-name="asciicircum" unicode="^" d="M104 730 l363 725 l85 1 l116 -727 l-101 0 l-80 561 l-279 -561 l-104 1 Z" /><glyph glyph-name="underscore" unicode="_" d="M643 0 l-19 -104 l-726 0 l19 104 l726 0 Z" /><glyph glyph-name="grave" unicode="`" d="M384 1536 l142 -280 l-100 0 l-177 280 l135 0 Z" /><glyph glyph-name="a" unicode="a" d="M601 0 q-4 38 -1.5 75 q2.5 37 9.5 75 q-58 -76 -136 -125 q-78 -49 -176 -47 q-132 2 -195 87.5 q-63 85.5 -54 211.5 q13 181 148 268 q135 87 302 87 l184 -1 l22 152 q10 100 -33.5 157.5 q-43.5 57.5 -146.5 58.5 q-102 2 -171 -58 q-69 -60 -89 -157 l-109 1 q20 142 128.5 231.5 q108.5 89.5 251.5 86.5 q149 -2 221 -89.5 q72 -87.5 58 -233.5 l-91 -553 q-9 -55 -9 -107 q0 -52 1 -107 l-2 -13 l-112 0 ZM317 86 q99 -2 177.5 51 q78.5 53 126.5 135 l45 265 l-154 1 q-123 0 -230 -57.5 q-107 -57.5 -121 -194.5 q-8 -86 28.5 -142 q36.5 -56 127.5 -58 Z" /><glyph glyph-name="b" unicode="b" d="M846 490 q-15 -118 -58 -238 q-43 -120 -129 -199 q-86 -79 -229 -74 q-185 6 -254 167 l-35 -146 l-103 0 l267 1536 l111 0 l-113 -605 q51 78 123 125.5 q72 47.5 169 45.5 q138 -3 197.5 -86 q59.5 -83 68.5 -201 q9 -118 -3 -224 l-12 -101 ZM566 998 q-100 2 -167.5 -55 q-67.5 -57 -111.5 -139 l-91 -542 q52 -170 219 -176 q114 -5 179.5 58 q65.5 63 97 158 q31.5 95 43.5 188 l12 102 q9 78 8 172 q-1 94 -41.5 163 q-40.5 69 -147.5 71 Z" /><glyph glyph-name="c" unicode="c" d="M389 82 q121 -4 187 69.5 q66 73.5 92 182.5 l103 0 q-26 -150 -126 -255 q-100 -105 -263 -101 q-141 4 -211.5 80 q-70.5 76 -89 190 q-18.5 114 -4.5 232 l16 122 q17 128 68 244.5 q51 116.5 145 188.5 q94 72 242 67 q165 -5 231 -120.5 q66 -115.5 57 -264.5 l-106 0 q7 104 -31.5 190.5 q-38.5 86.5 -158.5 91.5 q-115 4 -184.5 -55 q-69.5 -59 -104 -152 q-34.5 -93 -47.5 -190 l-16 -123 q-10 -85 -5 -175.5 q5 -90.5 50.5 -154 q45.5 -63.5 155.5 -67.5 Z" /><glyph glyph-name="d" unicode="d" d="M617 0 l27 139 q-53 -75 -125 -119 q-72 -44 -166 -42 q-136 3 -195.5 88 q-59.5 85 -70 203 q-10.5 118 1.5 221 l12 101 q16 120 59.5 239.5 q43.5 119.5 129.5 197.5 q86 78 231 73 q178 -6 247 -165 l108 600 l111 0 l-267 -1536 l-103 0 ZM200 489 q-8 -77 -6.5 -170.5 q1.5 -93.5 41.5 -162 q40 -68.5 146 -71.5 q93 -2 160 46 q67 48 114 123 l94 560 q-22 80 -74 129.5 q-52 49.5 -139 53.5 q-114 5 -180.5 -58 q-66.5 -63 -98.5 -158.5 q-32 -95.5 -44 -189.5 l-13 -102 Z" /><glyph glyph-name="e" unicode="e" d="M725 123 q-125 -147 -329 -144 q-139 3 -213.5 76 q-74.5 73 -98.5 184.5 q-24 111.5 -11 230.5 l15 124 q17 124 69.5 242.5 q52.5 118.5 148 194.5 q95.5 76 239.5 71 q134 -4 198.5 -76.5 q64.5 -72.5 80 -181 q15.5 -108.5 2.5 -219.5 l-13 -93 l-618 0 l-10 -63 q-12 -86 0.5 -174 q12.5 -88 63.5 -148.5 q51 -60.5 156 -62.5 q80 -3 145.5 29 q65.5 32 122.5 85 l52 -75 ZM538 999 q-106 4 -173 -50 q-67 -54 -104.5 -139.5 q-37.5 -85.5 -57.5 -173.5 l514 0 l5 29 q9 73 -0.5 149 q-9.5 76 -52 128.5 q-42.5 52.5 -131.5 56.5 Z" /><glyph glyph-name="f" unicode="f" d="M597 982 l-206 0 l-171 -982 l-110 0 l170 982 l-144 0 l17 100 l145 0 l19 134 q18 135 92.5 240.5 q74.5 105.5 226.5 103.5 q49 -1 111 -20 l-19 -101 q-50 14 -90 15 q-101 0 -149 -75.5 q-48 -75.5 -61 -161.5 l-20 -135 l207 0 l-18 -100 Z" /><glyph glyph-name="g" unicode="g" d="M719 -27 q-24 -174 -124 -292.5 q-100 -118.5 -289 -112.5 q-187 6 -295 154 l60 77 q43 -56 101.5 -91 q58.5 -35 131.5 -37 q143 -5 214 80.5 q71 85.5 91 216.5 l32 167 q-53 -73 -124 -116 q-71 -43 -164 -41 q-136 3 -195.5 87.5 q-59.5 84.5 -70 203 q-10.5 118.5 1.5 221.5 l12 101 q16 121 59.5 240.5 q43.5 119.5 129.5 197 q86 77.5 231 73.5 q182 -6 249 -171 l35 151 l103 0 l-189 -1109 ZM200 489 q-9 -77 -7 -170.5 q2 -93.5 42.5 -162 q40.5 -68.5 146.5 -71.5 q94 -2 161 47 q67 49 113 125 l92 555 q-22 80 -73.5 130.5 q-51.5 50.5 -138.5 54.5 q-115 4 -181 -58.5 q-66 -62.5 -98.5 -158 q-32.5 -95.5 -44.5 -189.5 l-12 -102 Z" /><glyph glyph-name="h" unicode="h" d="M570 998 q-98 3 -181 -76 q-83 -79 -110 -168 l-129 -754 l-111 0 l267 1536 l111 0 l-116 -621 q54 78 129 133.5 q75 55.5 175 53.5 q110 -2 161 -64 q51 -62 62.5 -153.5 q11.5 -91.5 1.5 -179.5 l-118 -705 l-110 0 l117 707 q7 63 2.5 129.5 q-4.5 66.5 -38 113 q-33.5 46.5 -113.5 48.5 Z" /><glyph glyph-name="i" unicode="i" d="M276 1394 q5 67 77 83 q74 -13 68 -83 q-5 -65 -77 -81 q-72 13 -68 81 ZM349 1082 l-188 -1082 l-110 0 l188 1082 l110 0 Z" /><glyph glyph-name="j" unicode="j" d="M272 1394 q2 31 22.5 56.5 q20.5 25.5 53.5 26.5 q34 1 52.5 -25 q18.5 -26 15.5 -58 q-2 -31 -23 -55.5 q-21 -24.5 -54 -25.5 q-33 -1 -51.5 24 q-18.5 25 -15.5 57 ZM234 1082 l112 0 l-206 -1211 q-15 -119 -78.5 -217 q-63.5 -98 -201.5 -94 q-25 1 -48 7 q-23 6 -46 14 l13 101 q18 -6 36.5 -10.5 q18.5 -4.5 38.5 -5.5 q87 -1 125 65 q38 66 49 140 l206 1211 Z" /><glyph glyph-name="k" unicode="k" d="M607 0 l-250 539 l-136 -129 l-71 -410 l-111 0 l267 1536 l110 0 l-168 -966 l104 109 l394 403 l146 0 l-454 -461 l292 -621 l-123 0 Z" /><glyph glyph-name="l" unicode="l" d="M428 1536 l-267 -1536 l-110 0 l267 1536 l110 0 Z" /><glyph glyph-name="m" unicode="m" d="M558 998 q-100 3 -178.5 -72 q-78.5 -75 -104.5 -167 l-129 -759 l-112 0 l188 1082 l107 0 l-32 -160 q54 79 129 130.5 q75 51.5 175 49.5 q95 -2 156.5 -54 q61.5 -52 75.5 -145 q57 85 137 143 q80 58 188 56 q111 -2 164.5 -62.5 q53.5 -60.5 67 -151 q13.5 -90.5 3.5 -182.5 l-118 -706 l-112 0 l118 708 q7 65 1 131.5 q-6 66.5 -41.5 112 q-35.5 45.5 -117.5 46.5 q-114 2 -192 -86.5 q-78 -88.5 -99 -191.5 l-123 -720 l-110 0 l119 717 q11 97 -15 188 q-26 91 -145 93 Z" /><glyph glyph-name="n" unicode="n" d="M570 998 q-98 2 -181 -76.5 q-83 -78.5 -110 -167.5 l-129 -754 l-111 0 l188 1082 l106 0 l-34 -169 q54 78 129.5 134.5 q75.5 56.5 175.5 55.5 q110 -2 161.5 -64.5 q51.5 -62.5 63 -154 q11.5 -91.5 1.5 -179.5 l-118 -705 l-110 0 l117 707 q7 62 2.5 129 q-4.5 67 -38 113.5 q-33.5 46.5 -113.5 48.5 Z" /><glyph glyph-name="o" unicode="o" d="M86 485 l14 111 q17 125 71 243 q54 118 149.5 193 q95.5 75 239.5 71 q137 -4 208.5 -82.5 q71.5 -78.5 92.5 -194 q21 -115.5 8 -229.5 l-14 -112 q-17 -124 -71 -242.5 q-54 -118.5 -150 -193.5 q-96 -75 -239 -71 q-137 4 -208.5 83 q-71.5 79 -92.5 194.5 q-21 115.5 -8 229.5 ZM211 597 l-15 -114 q-9 -80 0 -172 q9 -92 56 -158.5 q47 -66.5 151 -70.5 q112 -4 183 57.5 q71 61.5 108 156.5 q37 95 50 189 l15 113 q9 79 -0.5 171 q-9.5 92 -56 159 q-46.5 67 -150.5 71 q-109 4 -180 -58.5 q-71 -62.5 -109.5 -157 q-38.5 -94.5 -51.5 -186.5 Z" /><glyph glyph-name="p" unicode="p" d="M429 -21 q-83 2 -149 39.5 q-66 37.5 -105 112.5 l-99 -547 l-110 0 l260 1498 l103 1 l-28 -147 q53 76 125 122.5 q72 46.5 168 44.5 q139 -3 198 -86.5 q59 -83.5 68 -201 q9 -117.5 -3 -224.5 l-12 -101 q-16 -118 -59 -238 q-43 -120 -128.5 -199 q-85.5 -79 -228.5 -74 ZM561 997 q-94 3 -160.5 -49.5 q-66.5 -52.5 -111.5 -129.5 l-96 -572 q55 -158 217 -164 q114 -4 180.5 59 q66.5 63 99.5 159 q33 96 45 190 l12 102 q9 78 6.5 172 q-2.5 94 -44 162.5 q-41.5 68.5 -148.5 70.5 Z" /><glyph glyph-name="q" unicode="q" d="M907 1082 l-260 -1498 l-111 0 l102 542 q-53 -70 -123.5 -109.5 q-70.5 -39.5 -160.5 -37.5 q-137 2 -196.5 86 q-59.5 84 -70 202 q-10.5 118 1.5 223 l12 101 q16 122 59 241.5 q43 119.5 129.5 196.5 q86.5 77 232.5 73 q177 -6 248 -161 l34 141 l103 0 ZM200 489 q-9 -77 -6.5 -171 q2.5 -94 43 -163.5 q40.5 -69.5 146.5 -72.5 q90 -2 156 43.5 q66 45.5 113 116.5 l99 584 q-25 75 -77.5 122 q-52.5 47 -134.5 51 q-115 5 -181.5 -58.5 q-66.5 -63.5 -99.5 -159.5 q-33 -96 -45 -190 l-13 -102 Z" /><glyph glyph-name="r" unicode="r" d="M558 988 q-100 1 -177 -70.5 q-77 -71.5 -103 -164.5 l-128 -753 l-111 0 l188 1082 l108 0 l-34 -161 q44 76 110 131.5 q66 55.5 160 52.5 q19 -1 36 -5 q17 -4 35 -9 l-17 -111 q-17 3 -33.5 5.5 q-16.5 2.5 -33.5 2.5 Z" /><glyph glyph-name="s" unicode="s" d="M611 274 q11 88 -56.5 139 q-67.5 51 -133.5 86 q-96 52 -179 117 q-83 65 -75 190 q9 137 112 218 q103 81 236 78 q140 -3 219 -90.5 q79 -87.5 69 -225.5 l-109 0 q6 89 -43 149.5 q-49 60.5 -142 61.5 q-87 2 -154.5 -47.5 q-67.5 -49.5 -78.5 -139.5 q-10 -84 54.5 -130 q64.5 -46 128.5 -79 q101 -54 185.5 -121.5 q84.5 -67.5 76.5 -198.5 q-10 -146 -117.5 -225 q-107.5 -79 -246.5 -76 q-140 3 -229.5 87.5 q-89.5 84.5 -78.5 228.5 l110 -1 q-8 -209 204 -211 q88 -1 162.5 47.5 q74.5 48.5 85.5 142.5 Z" /><glyph glyph-name="t" unicode="t" d="M400 -4 q-49 -15 -101 -14 q-77 1 -111.5 46.5 q-34.5 45.5 -41.5 110.5 q-7 65 -1 125 l118 718 l-161 0 l17 100 l161 0 l49 277 l111 0 l-48 -277 l178 0 l-17 -100 l-178 0 l-120 -719 q-5 -49 0.5 -109 q5.5 -60 72.5 -63 q20 -1 39.5 1.5 q19.5 2.5 38.5 6.5 l-6 -103 Z" /><glyph glyph-name="u" unicode="u" d="M604 0 l28 130 q-113 -155 -295 -151 q-111 3 -163.5 68 q-52.5 65 -64 158.5 q-11.5 93.5 -2.5 183.5 l116 693 l111 0 l-116 -696 q-6 -58 -2 -127 q4 -69 36 -119.5 q32 -50.5 109 -53.5 q96 -3 180 53.5 q84 56.5 112 151.5 l135 791 l110 0 l-187 -1082 l-107 0 Z" /><glyph glyph-name="v" unicode="v" d="M866 1081 l-490 -1081 l-91 0 l-159 1082 l110 0 l119 -902 l399 902 l112 -1 Z" /><glyph glyph-name="w" unicode="w" d="M1306 1081 l-438 -1081 l-96 0 l-77 861 l1 27 l-9 -28 l-373 -860 l-94 0 l-68 1082 l108 0 l43 -836 l-4 -59 l23 64 l359 831 l93 0 l69 -831 l1 -70 l25 75 l326 826 l111 -1 Z" /><glyph glyph-name="x" unicode="x" d="M269 1082 l160 -433 l297 433 l136 0 l-385 -537 l222 -545 l-122 0 l-170 453 l-312 -453 l-136 0 l400 557 l-212 525 l122 0 Z" /><glyph glyph-name="y" unicode="y" d="M292 -174 q-41 -94 -107 -181 q-66 -87 -183 -85 q-22 0 -43 4.5 q-21 4.5 -42 10.5 l11 101 q13 -2 25 -5 q12 -3 25 -3 q92 -5 143.5 59 q51.5 64 84.5 139 l67 150 l-144 1066 l116 0 l106 -894 l403 894 l122 0 l-584 -1256 Z" /><glyph glyph-name="z" unicode="z" d="M170 977 l18 105 l649 0 l-17 -96 l-681 -882 l563 0 l-19 -104 l-697 0 l17 97 l679 880 l-512 0 Z" /><glyph glyph-name="braceleft" unicode="{" d="M207 287 q10 90 -12.5 168 q-22.5 78 -127.5 86 l12 106 q114 6 165 80.5 q51 74.5 65 178.5 l31 226 q22 164 100 286.5 q78 122.5 239 182.5 l23 -85 q-122 -48 -177.5 -154.5 q-55.5 -106.5 -73.5 -229.5 l-31 -226 q-15 -103 -62 -184 q-47 -81 -142 -130 q75 -50 92.5 -136.5 q17.5 -86.5 8.5 -169.5 l-30 -227 q-13 -108 7 -217.5 q20 -109.5 129 -163.5 l-33 -79 q-144 60 -187 188.5 q-43 128.5 -26 272.5 l30 227 Z" /><glyph glyph-name="bar" unicode="|" d="M407 1456 l-270 -1726 l-102 0 l270 1726 l102 0 Z" /><glyph glyph-name="braceright" unicode="}" d="M384 905 q-10 -90 12.5 -168 q22.5 -78 127.5 -86 l-12 -106 q-114 -6 -165 -80.5 q-51 -74.5 -66 -178.5 l-30 -226 q-23 -164 -100.5 -285.5 q-77.5 -121.5 -238.5 -181.5 l-24 86 q122 49 178 153.5 q56 104.5 74 227.5 l31 226 q15 106 64 187 q49 81 149 127 q-80 47 -99.5 134 q-19.5 87 -11.5 172 l31 227 q13 105 -4.5 217.5 q-17.5 112.5 -125.5 165.5 l29 79 q144 -61 186 -190 q42 -129 25 -273 l-30 -227 Z" /><glyph glyph-name="asciitilde" unicode="~" d="M977 765 l87 1 q-9 -77 -40 -157.5 q-31 -80.5 -89.5 -135 q-58.5 -54.5 -150.5 -52.5 q-76 1 -131 46 q-55 45 -101 100 q-32 39 -69 75 q-37 36 -92 38 q-94 2 -132 -76 q-38 -78 -51 -153 l-96 -2 q10 78 41.5 157.5 q31.5 79.5 90.5 132.5 q59 53 152 51 q76 -1 131.5 -46 q55.5 -45 100.5 -100 q32 -39 69.5 -76 q37.5 -37 92.5 -38 q94 -1 134 79 q40 80 53 156 Z" /><glyph glyph-name="cent" unicode="¢" d="M790 334 q-26 -139 -117 -233.5 q-91 -94.5 -232 -117.5 l-43 -228 l-111 0 l45 231 q-117 28 -169 117.5 q-52 89.5 -62 202.5 q-10 113 1 211 l5 43 q16 121 62 236.5 q46 115.5 131.5 198 q85.5 82.5 216.5 103.5 l42 220 l111 0 l-43 -221 q134 -31 185 -143.5 q51 -112.5 43 -236.5 l-105 0 q4 97 -37.5 187 q-41.5 90 -155.5 95 q-115 4 -186 -67.5 q-71 -71.5 -107 -175.5 q-36 -104 -48 -196 l-5 -42 q-9 -79 -4.5 -179.5 q4.5 -100.5 48.5 -176 q44 -75.5 153 -79.5 q114 -4 183 73 q69 77 95 178 l104 0 Z" /><glyph glyph-name="sterling" unicode="£" d="M-4 0 l13 106 l84 -2 q67 32 89 115 q22 83 31 150 l39 275 l-151 0 l19 107 l148 0 l39 288 q14 107 61.5 209 q47.5 102 131.5 167 q84 65 206 62 q163 -5 224.5 -125.5 q61.5 -120.5 47.5 -263.5 l-114 0 q10 97 -23.5 188 q-33.5 91 -150.5 95 q-88 3 -144.5 -50 q-56.5 -53 -86.5 -131 q-30 -78 -40 -150 l-38 -289 l277 0 l-19 -107 l-274 0 l-39 -274 q-10 -72 -33 -139.5 q-23 -67.5 -69 -125.5 l609 2 l-19 -107 l-818 0 Z" /><glyph glyph-name="yen" unicode="¥" d="M744 324 l-285 0 l-57 -324 l-115 0 l57 324 l-283 0 l16 90 l282 0 l36 202 l-283 0 l16 91 l252 0 l-192 749 l122 0 l164 -706 l410 706 l133 0 l-452 -749 l246 0 l-16 -91 l-286 0 l-35 -202 l286 0 l-16 -90 Z" /><glyph glyph-name="dieresis" unicode="¨" d="M681 1395 q2 33 26.5 57.5 q24.5 24.5 58.5 25.5 q35 0 57.5 -24 q22.5 -24 19.5 -59 q-2 -34 -26.5 -57.5 q-24.5 -23.5 -58.5 -24.5 q-35 0 -57 23.5 q-22 23.5 -20 58.5 ZM257 1396 q2 33 26.5 57 q24.5 24 58.5 25 q34 0 57 -23.5 q23 -23.5 21 -58.5 q-3 -33 -27.5 -57 q-24.5 -24 -58.5 -25 q-35 0 -57 23.5 q-22 23.5 -20 58.5 Z" /><glyph glyph-name="copyright" unicode="©" d="M123 722 q23 199 134 372 q111 173 283.5 279.5 q172.5 106.5 380.5 102.5 q199 -3 336.5 -110.5 q137.5 -107.5 202 -276 q64.5 -168.5 42.5 -354.5 q-23 -198 -133.5 -372 q-110.5 -174 -283.5 -281 q-173 -107 -381 -103 q-199 3 -336.5 111.5 q-137.5 108.5 -201.5 277.5 q-64 169 -43 354 ZM210 722 q-21 -161 32 -310 q53 -149 171 -245.5 q118 -96.5 292 -99.5 q184 -4 337 91 q153 95 252.5 249.5 q99.5 154.5 121.5 328.5 q21 161 -32 309 q-53 148 -171.5 244 q-118.5 96 -292.5 99 q-184 4 -337 -90.5 q-153 -94.5 -252 -248 q-99 -153.5 -121 -327.5 ZM995 606 l95 1 q-18 -143 -104 -231 q-86 -88 -236 -84 q-160 5 -224 126 q-64 121 -52 262 l9 97 q17 151 112 271 q95 120 261 117 q142 -3 211.5 -90 q69.5 -87 58.5 -224 l-98 0 q9 97 -31.5 159 q-40.5 62 -144.5 64 q-124 3 -189 -92 q-65 -95 -78 -204 l-11 -99 q-9 -98 26.5 -194 q35.5 -96 153.5 -101 q110 -3 166 59.5 q56 62.5 75 162.5 Z" /><glyph glyph-name="guillemotleft" unicode="«" d="M284 148 l-181 378 l2 20 l303 380 l102 0 l-295 -396 l152 -382 l-83 0 ZM540 148 l-181 378 l2 20 l303 380 l102 0 l-295 -396 l152 -382 l-83 0 Z" /><glyph glyph-name="registered" unicode="®" d="M119 722 q23 199 134 372.5 q111 173.5 283.5 279.5 q172.5 106 380.5 102 q199 -3 336.5 -110.5 q137.5 -107.5 201.5 -276 q64 -168.5 43 -354.5 q-23 -198 -134 -372 q-111 -174 -283.5 -281 q-172.5 -107 -380.5 -103 q-199 3 -337 111 q-138 108 -202 277.5 q-64 169.5 -42 354.5 ZM204 722 q-20 -161 33 -310 q53 -149 171 -245.5 q118 -96.5 293 -100.5 q184 -3 337 92 q153 95 252.5 249 q99.5 154 121.5 329 q21 161 -32 309.5 q-53 148.5 -171 244 q-118 95.5 -293 98.5 q-184 4 -337 -90 q-153 -94 -252.5 -247.5 q-99.5 -153.5 -122.5 -328.5 ZM830 665 l-186 1 l-55 -345 l-98 0 l132 840 l243 -1 q112 -3 192.5 -59 q80.5 -56 71.5 -181 q-5 -77 -52 -126 q-47 -49 -113 -82 q60 -30 78 -84.5 q18 -54.5 12 -117.5 l-6 -46 q-4 -33 -2.5 -64 q1.5 -31 1.5 -63 l-2 -16 l-98 0 q-6 36 -3.5 72 q2.5 36 5.5 73 l6 44 q14 148 -126 155 ZM707 1069 l-49 -310 l168 -1 q74 2 137 40.5 q63 38.5 73 118.5 q11 89 -40.5 119 q-51.5 30 -129.5 32 l-159 1 Z" /><glyph glyph-name="acute" unicode="´" d="M218 1256 l230 280 l151 -1 l-269 -278 l-112 -1 Z" /><glyph glyph-name="cedilla" unicode="¸" d="M36 0 l85 0 l-21 -66 q60 -14 85 -58 q25 -44 23 -104 q-6 -114 -90 -159.5 q-84 -45.5 -183 -50.5 l1 81 q60 3 115.5 31 q55.5 28 63.5 96 q8 61 -31.5 78 q-39.5 17 -88.5 24 l41 128 Z" /><glyph glyph-name="guillemotright" unicode="»" d="M259 945 l179 -384 l-2 -20 l-302 -379 l-103 0 l295 395 l-151 388 l84 0 ZM523 945 l179 -384 l-2 -20 l-302 -379 l-103 0 l295 395 l-151 388 l84 0 Z" /><glyph glyph-name="circumflex" unicode="&#x2c6;" d="M569 1527 l161 -258 l-1 -12 l-98 1 l-100 181 l-166 -180 l-98 -1 l1 14 l233 254 l68 1 Z" /><glyph glyph-name="ring" unicode="&#x2da;" d="M252 1388 q2 81 60 140.5 q58 59.5 141 59.5 q76 0 126.5 -54.5 q50.5 -54.5 48.5 -129.5 q-2 -82 -60.5 -139.5 q-58.5 -57.5 -140.5 -57.5 q-76 0 -126.5 52.5 q-50.5 52.5 -48.5 128.5 ZM328 1390 q-5 -44 22.5 -77.5 q27.5 -33.5 73.5 -32.5 q50 0 86 36.5 q36 36.5 41 85.5 q5 44 -21 79 q-26 35 -73 34 q-51 0 -87.5 -38 q-36.5 -38 -41.5 -87 Z" /><glyph glyph-name="tilde" unicode="&#x2dc;" d="M724 1492 l78 -5 q-10 -75 -52 -146.5 q-42 -71.5 -131 -70.5 q-47 0 -79.5 28.5 q-32.5 28.5 -64 56.5 q-31.5 28 -75.5 27 q-50 -1 -72.5 -39.5 q-22.5 -38.5 -32.5 -79.5 l-84 4 q11 74 53 145.5 q42 71.5 131 70.5 q47 0 79.5 -28.5 q32.5 -28.5 64.5 -57 q32 -28.5 76 -27.5 q50 1 74.5 41 q24.5 40 34.5 81 Z" /><glyph glyph-name="endash" unicode="&#x2013;" d="M1011 789 l-23 -104 l-819 0 l22 104 l820 0 Z" /><glyph glyph-name="emdash" unicode="&#x2014;" d="M1281 789 l-30 -104 l-1093 0 l30 104 l1093 0 Z" /><glyph glyph-name="quoteleft" unicode="&#x2018;" d="M188 1120 l18 111 q32 195 172 325 l61 -56 q-45 -60 -76.5 -125 q-31.5 -65 -44.5 -140 l-20 -115 l-110 0 Z" /><glyph glyph-name="quoteright" unicode="&#x2019;" d="M416 1536 l-19 -115 q-31 -192 -172 -325 l-62 56 q46 61 77.5 126 q31.5 65 44.5 140 l21 118 l110 0 Z" /><glyph glyph-name="quotesinglbase" unicode="&#x201a;" d="M169 205 l-17 -114 q-30 -193 -170 -327 l-65 57 q46 61 77 126 q31 65 44 140 l21 118 l110 0 Z" /><glyph glyph-name="quotedblleft" unicode="&#x201c;" d="M190 1120 l18 111 q32 195 172 325 l61 -56 q-45 -60 -76.5 -125 q-31.5 -65 -44.5 -140 l-20 -115 l-110 0 ZM404 1120 l18 111 q32 195 172 325 l61 -56 q-45 -60 -76.5 -125 q-31.5 -65 -44.5 -140 l-20 -115 l-110 0 Z" /><glyph glyph-name="quotedblright" unicode="&#x201d;" d="M422 1536 l-19 -115 q-31 -192 -172 -325 l-62 56 q46 61 77.5 126 q31.5 65 44.5 140 l21 118 l110 0 ZM630 1536 l-19 -115 q-31 -192 -172 -325 l-62 56 q46 61 77.5 126 q31.5 65 44.5 140 l21 118 l110 0 Z" /><glyph glyph-name="quotedblbase" unicode="&#x201e;" d="M374 237 l-22 -147 q-29 -199 -165 -335 l-70 59 q46 62 77 129 q31 67 44 144 l26 150 l110 0 ZM174 237 l-22 -147 q-31 -200 -171 -335 l-65 57 q46 63 77.5 130.5 q31.5 67.5 44.5 144.5 l27 150 l109 0 Z" /><glyph glyph-name="ellipsis" unicode="&#x2026;" d="M65 74 q2 34 27 59.5 q25 25.5 60 26.5 q36 1 59.5 -24.5 q23.5 -25.5 20.5 -61.5 q-3 -35 -28.5 -59 q-25.5 -24 -60.5 -25 q-36 -1 -58.5 23.5 q-22.5 24.5 -19.5 60.5 ZM403 74 q2 34 27 59.5 q25 25.5 60 26.5 q36 1 59.5 -24.5 q23.5 -25.5 20.5 -61.5 q-3 -35 -28.5 -59 q-25.5 -24 -60.5 -25 q-36 -1 -58.5 23.5 q-22.5 24.5 -19.5 60.5 ZM726 74 q2 34 27 59.5 q25 25.5 60 26.5 q36 1 59.5 -24.5 q23.5 -25.5 20.5 -61.5 q-3 -35 -28.5 -59 q-25.5 -24 -60.5 -25 q-36 -1 -58.5 23.5 q-22.5 24.5 -19.5 60.5 Z" /><glyph glyph-name="guilsinglleft" unicode="&#x2039;" d="M279 167 l-181 378 l2 20 l303 380 l102 0 l-295 -396 l152 -382 l-83 0 Z" /><glyph glyph-name="guilsinglright" unicode="&#x203a;" d="M245 945 l179 -384 l-2 -20 l-302 -379 l-103 0 l295 395 l-151 388 l84 0 Z" /><glyph glyph-name="Euro" unicode="&#x20ac;" d="M125 816 l16 91 l150 0 q25 144 87 275.5 q62 131.5 170.5 214.5 q108.5 83 273.5 80 q50 0 98 -9.5 q48 -9.5 96 -22.5 l-24 -111 q-89 36 -174 37 q-134 3 -215.5 -66 q-81.5 -69 -126.5 -175.5 q-45 -106.5 -69 -217.5 l-2 -11 l341 7 l-17 -92 l-335 0 l-28 -163 l336 0 l-17 -91 l-331 1 l-3 -17 q-14 -94 -3.5 -199.5 q10.5 -105.5 66 -180.5 q55.5 -75 176.5 -78 q48 -1 94 8 q46 9 91 24 l-1 -110 q-98 -31 -189 -29 q-154 2 -236.5 89.5 q-82.5 87.5 -106.5 217 q-24 129.5 -4 258.5 l3 17 l-160 -1 l16 91 l154 0 l29 163 l-155 0 Z" /><glyph glyph-name="trademark" unicode="&#x2122;" d="M895 919 l68 398 l-187 -397 l-43 -1 l-50 417 l-72 -417 l-64 0 l91 537 l78 0 l52 -423 l201 423 l82 0 l-93 -537 l-63 0 ZM572 1456 l-9 -69 l-129 0 l-79 -468 l-65 0 l78 468 l-124 0 l8 69 l320 0 Z" /><glyph glyph-name="Agrave" unicode="à" d="M-64 0 l703 1456 l106 0 l197 -1456 l-114 0 l-50 407 l-527 0 l-193 -407 l-122 0 ZM301 514 l463 0 l-96 778 l-367 -778 ZM643 1850 l142 -280 l-100 0 l-177 280 l135 0 Z" /><glyph glyph-name="Aacute" unicode="á" d="M-64 0 l703 1456 l106 0 l197 -1456 l-114 0 l-50 407 l-527 0 l-193 -407 l-122 0 ZM301 514 l463 0 l-96 778 l-367 -778 ZM641 1570 l230 280 l151 -1 l-269 -278 l-112 -1 Z" /><glyph glyph-name="Acircumflex" unicode="â" d="M-64 0 l703 1456 l106 0 l197 -1456 l-114 0 l-50 407 l-527 0 l-193 -407 l-122 0 ZM301 514 l463 0 l-96 778 l-367 -778 ZM790 1841 l161 -258 l-1 -12 l-98 1 l-100 181 l-166 -180 l-98 -1 l1 14 l233 254 l68 1 Z" /><glyph glyph-name="Atilde" unicode="ã" d="M-64 0 l703 1456 l106 0 l197 -1456 l-114 0 l-50 407 l-527 0 l-193 -407 l-122 0 ZM301 514 l463 0 l-96 778 l-367 -778 ZM956 1816 l78 -5 q-10 -75 -52 -146.5 q-42 -71.5 -131 -70.5 q-47 0 -79.5 28.5 q-32.5 28.5 -64 56.5 q-31.5 28 -75.5 27 q-50 -1 -72.5 -39.5 q-22.5 -38.5 -32.5 -79.5 l-84 4 q11 74 53 145.5 q42 71.5 131 70.5 q47 0 79.5 -28.5 q32.5 -28.5 64.5 -57 q32 -28.5 76 -27.5 q50 1 74.5 41 q24.5 40 34.5 81 Z" /><glyph glyph-name="Ccedilla" unicode="ç" d="M877 453 l108 1 q-38 -206 -159 -344 q-121 -138 -347 -131 q-160 4 -241 99 q-81 95 -103 231.5 q-22 136.5 -5 267.5 l50 312 q22 146 86 282.5 q64 136.5 176.5 222.5 q112.5 86 279.5 83 q211 -5 291 -145.5 q80 -140.5 70 -331.5 l-114 0 q6 143 -41.5 254 q-47.5 111 -212.5 116 q-134 4 -221 -68.5 q-87 -72.5 -134.5 -184.5 q-47.5 -112 -65.5 -226 l-49 -315 q-13 -97 -4.5 -209.5 q8.5 -112.5 64 -194 q55.5 -81.5 182.5 -86.5 q182 -8 266 99 q84 107 124 268 ZM425 -10 l85 0 l-21 -66 q60 -14 85 -58 q25 -44 23 -104 q-6 -114 -90 -159.5 q-84 -45.5 -183 -50.5 l1 81 q60 3 115.5 31 q55.5 28 63.5 96 q8 61 -31.5 78 q-39.5 17 -88.5 24 l41 128 Z" /><glyph glyph-name="Eacute" unicode="é" d="M63 0 l252 1456 l738 0 l-19 -107 l-624 0 l-95 -545 l548 0 l-19 -107 l-547 0 l-102 -590 l630 0 l-20 -107 l-742 0 ZM619 1576 l230 280 l151 -1 l-269 -278 l-112 -1 Z" /><glyph glyph-name="Ecircumflex" unicode="ê" d="M63 0 l252 1456 l738 0 l-19 -107 l-624 0 l-95 -545 l548 0 l-19 -107 l-547 0 l-102 -590 l630 0 l-20 -107 l-742 0 ZM768 1847 l161 -258 l-1 -12 l-98 1 l-100 181 l-166 -180 l-98 -1 l1 14 l233 254 l68 1 Z" /><glyph glyph-name="Iacute" unicode="í" d="M449 1456 l-253 -1456 l-114 0 l253 1456 l114 0 ZM338 1576 l230 280 l151 -1 l-269 -278 l-112 -1 Z" /><glyph glyph-name="Oacute" unicode="ó" d="M1091 885 l-50 -314 q-23 -150 -87 -287.5 q-64 -137.5 -177.5 -223.5 q-113.5 -86 -285.5 -81 q-162 4 -247.5 94 q-85.5 90 -111 225 q-25.5 135 -7.5 272 l50 315 q23 148 87.5 285.5 q64.5 137.5 178 224 q113.5 86.5 284.5 81.5 q164 -4 249.5 -94 q85.5 -90 110 -224.5 q24.5 -134.5 6.5 -272.5 ZM928 570 l50 319 q14 105 2.5 214 q-11.5 109 -71.5 184.5 q-60 75.5 -191 79.5 q-138 4 -226.5 -67 q-88.5 -71 -137 -183 q-48.5 -112 -65.5 -230 l-50 -318 q-13 -104 -1 -213.5 q12 -109.5 71.5 -186 q59.5 -76.5 189.5 -81.5 q140 -4 228 67 q88 71 136 183.5 q48 112.5 65 231.5 ZM681 1581 l230 280 l151 -1 l-269 -278 l-112 -1 Z" /><glyph glyph-name="Ocircumflex" unicode="ô" d="M1091 885 l-50 -314 q-23 -150 -87 -287.5 q-64 -137.5 -177.5 -223.5 q-113.5 -86 -285.5 -81 q-162 4 -247.5 94 q-85.5 90 -111 225 q-25.5 135 -7.5 272 l50 315 q23 148 87.5 285.5 q64.5 137.5 178 224 q113.5 86.5 284.5 81.5 q164 -4 249.5 -94 q85.5 -90 110 -224.5 q24.5 -134.5 6.5 -272.5 ZM928 570 l50 319 q14 105 2.5 214 q-11.5 109 -71.5 184.5 q-60 75.5 -191 79.5 q-138 4 -226.5 -67 q-88.5 -71 -137 -183 q-48.5 -112 -65.5 -230 l-50 -318 q-13 -104 -1 -213.5 q12 -109.5 71.5 -186 q59.5 -76.5 189.5 -81.5 q140 -4 228 67 q88 71 136 183.5 q48 112.5 65 231.5 ZM830 1852 l161 -258 l-1 -12 l-98 1 l-100 181 l-166 -180 l-98 -1 l1 14 l233 254 l68 1 Z" /><glyph glyph-name="Otilde" unicode="õ" d="M1091 885 l-50 -314 q-23 -150 -87 -287.5 q-64 -137.5 -177.5 -223.5 q-113.5 -86 -285.5 -81 q-162 4 -247.5 94 q-85.5 90 -111 225 q-25.5 135 -7.5 272 l50 315 q23 148 87.5 285.5 q64.5 137.5 178 224 q113.5 86.5 284.5 81.5 q164 -4 249.5 -94 q85.5 -90 110 -224.5 q24.5 -134.5 6.5 -272.5 ZM928 570 l50 319 q14 105 2.5 214 q-11.5 109 -71.5 184.5 q-60 75.5 -191 79.5 q-138 4 -226.5 -67 q-88.5 -71 -137 -183 q-48.5 -112 -65.5 -230 l-50 -318 q-13 -104 -1 -213.5 q12 -109.5 71.5 -186 q59.5 -76.5 189.5 -81.5 q140 -4 228 67 q88 71 136 183.5 q48 112.5 65 231.5 ZM996 1827 l78 -5 q-10 -75 -52 -146.5 q-42 -71.5 -131 -70.5 q-47 0 -79.5 28.5 q-32.5 28.5 -64 56.5 q-31.5 28 -75.5 27 q-50 -1 -72.5 -39.5 q-22.5 -38.5 -32.5 -79.5 l-84 4 q11 74 53 145.5 q42 71.5 131 70.5 q47 0 79.5 -28.5 q32.5 -28.5 64.5 -57 q32 -28.5 76 -27.5 q50 1 74.5 41 q24.5 40 34.5 81 Z" /><glyph glyph-name="Uacute" unicode="ú" d="M1024 1456 l114 0 l-175 -1024 q-29 -202 -153 -330.5 q-124 -128.5 -338 -123.5 q-201 4 -286.5 133 q-85.5 129 -63.5 319 l174 1026 l113 0 l-174 -1027 q-15 -141 38.5 -239.5 q53.5 -98.5 207.5 -103.5 q164 -6 255.5 91.5 q91.5 97.5 113.5 251.5 l174 1027 ZM667 1570 l230 280 l151 -1 l-269 -278 l-112 -1 Z" /><glyph glyph-name="Udieresis" unicode="ü" d="M1024 1456 l114 0 l-175 -1024 q-29 -202 -153 -330.5 q-124 -128.5 -338 -123.5 q-201 4 -286.5 133 q-85.5 129 -63.5 319 l174 1026 l113 0 l-174 -1027 q-15 -141 38.5 -239.5 q53.5 -98.5 207.5 -103.5 q164 -6 255.5 91.5 q91.5 97.5 113.5 251.5 l174 1027 ZM896 1709 q2 33 26.5 57.5 q24.5 24.5 58.5 25.5 q35 0 57.5 -24 q22.5 -24 19.5 -59 q-2 -34 -26.5 -57.5 q-24.5 -23.5 -58.5 -24.5 q-35 0 -57 23.5 q-22 23.5 -20 58.5 ZM472 1710 q2 33 26.5 57 q24.5 24 58.5 25 q34 0 57 -23.5 q23 -23.5 21 -58.5 q-3 -33 -27.5 -57 q-24.5 -24 -58.5 -25 q-35 0 -57 23.5 q-22 23.5 -20 58.5 Z" /><glyph glyph-name="agrave" unicode="à" d="M601 0 q-4 38 -1.5 75 q2.5 37 9.5 75 q-58 -76 -136 -125 q-78 -49 -176 -47 q-132 2 -195 87.5 q-63 85.5 -54 211.5 q13 181 148 268 q135 87 302 87 l184 -1 l22 152 q10 100 -33.5 157.5 q-43.5 57.5 -146.5 58.5 q-102 2 -171 -58 q-69 -60 -89 -157 l-109 1 q20 142 128.5 231.5 q108.5 89.5 251.5 86.5 q149 -2 221 -89.5 q72 -87.5 58 -233.5 l-91 -553 q-9 -55 -9 -107 q0 -52 1 -107 l-2 -13 l-112 0 ZM317 86 q99 -2 177.5 51 q78.5 53 126.5 135 l45 265 l-154 1 q-123 0 -230 -57.5 q-107 -57.5 -121 -194.5 q-8 -86 28.5 -142 q36.5 -56 127.5 -58 ZM533 1535 l142 -280 l-100 0 l-177 280 l135 0 Z" /><glyph glyph-name="aacute" unicode="á" d="M601 0 q-4 38 -1.5 75 q2.5 37 9.5 75 q-58 -76 -136 -125 q-78 -49 -176 -47 q-132 2 -195 87.5 q-63 85.5 -54 211.5 q13 181 148 268 q135 87 302 87 l184 -1 l22 152 q10 100 -33.5 157.5 q-43.5 57.5 -146.5 58.5 q-102 2 -171 -58 q-69 -60 -89 -157 l-109 1 q20 142 128.5 231.5 q108.5 89.5 251.5 86.5 q149 -2 221 -89.5 q72 -87.5 58 -233.5 l-91 -553 q-9 -55 -9 -107 q0 -52 1 -107 l-2 -13 l-112 0 ZM317 86 q99 -2 177.5 51 q78.5 53 126.5 135 l45 265 l-154 1 q-123 0 -230 -57.5 q-107 -57.5 -121 -194.5 q-8 -86 28.5 -142 q36.5 -56 127.5 -58 ZM531 1255 l230 280 l151 -1 l-269 -278 l-112 -1 Z" /><glyph glyph-name="acircumflex" unicode="â" d="M601 0 q-4 38 -1.5 75 q2.5 37 9.5 75 q-58 -76 -136 -125 q-78 -49 -176 -47 q-132 2 -195 87.5 q-63 85.5 -54 211.5 q13 181 148 268 q135 87 302 87 l184 -1 l22 152 q10 100 -33.5 157.5 q-43.5 57.5 -146.5 58.5 q-102 2 -171 -58 q-69 -60 -89 -157 l-109 1 q20 142 128.5 231.5 q108.5 89.5 251.5 86.5 q149 -2 221 -89.5 q72 -87.5 58 -233.5 l-91 -553 q-9 -55 -9 -107 q0 -52 1 -107 l-2 -13 l-112 0 ZM317 86 q99 -2 177.5 51 q78.5 53 126.5 135 l45 265 l-154 1 q-123 0 -230 -57.5 q-107 -57.5 -121 -194.5 q-8 -86 28.5 -142 q36.5 -56 127.5 -58 ZM680 1526 l161 -258 l-1 -12 l-98 1 l-100 181 l-166 -180 l-98 -1 l1 14 l233 254 l68 1 Z" /><glyph glyph-name="atilde" unicode="ã" d="M601 0 q-4 38 -1.5 75 q2.5 37 9.5 75 q-58 -76 -136 -125 q-78 -49 -176 -47 q-132 2 -195 87.5 q-63 85.5 -54 211.5 q13 181 148 268 q135 87 302 87 l184 -1 l22 152 q10 100 -33.5 157.5 q-43.5 57.5 -146.5 58.5 q-102 2 -171 -58 q-69 -60 -89 -157 l-109 1 q20 142 128.5 231.5 q108.5 89.5 251.5 86.5 q149 -2 221 -89.5 q72 -87.5 58 -233.5 l-91 -553 q-9 -55 -9 -107 q0 -52 1 -107 l-2 -13 l-112 0 ZM317 86 q99 -2 177.5 51 q78.5 53 126.5 135 l45 265 l-154 1 q-123 0 -230 -57.5 q-107 -57.5 -121 -194.5 q-8 -86 28.5 -142 q36.5 -56 127.5 -58 ZM847 1501 l78 -5 q-10 -75 -52 -146.5 q-42 -71.5 -131 -70.5 q-47 0 -79.5 28.5 q-32.5 28.5 -64 56.5 q-31.5 28 -75.5 27 q-50 -1 -72.5 -39.5 q-22.5 -38.5 -32.5 -79.5 l-84 4 q11 74 53 145.5 q42 71.5 131 70.5 q47 0 79.5 -28.5 q32.5 -28.5 64.5 -57 q32 -28.5 76 -27.5 q50 1 74.5 41 q24.5 40 34.5 81 Z" /><glyph glyph-name="ccedilla" unicode="ç" d="M389 82 q121 -4 187 69.5 q66 73.5 92 182.5 l103 0 q-26 -150 -126 -255 q-100 -105 -263 -101 q-141 4 -211.5 80 q-70.5 76 -89 190 q-18.5 114 -4.5 232 l16 122 q17 128 68 244.5 q51 116.5 145 188.5 q94 72 242 67 q165 -5 231 -120.5 q66 -115.5 57 -264.5 l-106 0 q7 104 -31.5 190.5 q-38.5 86.5 -158.5 91.5 q-115 4 -184.5 -55 q-69.5 -59 -104 -152 q-34.5 -93 -47.5 -190 l-16 -123 q-10 -85 -5 -175.5 q5 -90.5 50.5 -154 q45.5 -63.5 155.5 -67.5 ZM321 -10 l85 0 l-21 -66 q60 -14 85 -58 q25 -44 23 -104 q-6 -114 -90 -159.5 q-84 -45.5 -183 -50.5 l1 81 q60 3 115.5 31 q55.5 28 63.5 96 q8 61 -31.5 78 q-39.5 17 -88.5 24 l41 128 Z" /><glyph glyph-name="eacute" unicode="é" d="M725 123 q-125 -147 -329 -144 q-139 3 -213.5 76 q-74.5 73 -98.5 184.5 q-24 111.5 -11 230.5 l15 124 q17 124 69.5 242.5 q52.5 118.5 148 194.5 q95.5 76 239.5 71 q134 -4 198.5 -76.5 q64.5 -72.5 80 -181 q15.5 -108.5 2.5 -219.5 l-13 -93 l-618 0 l-10 -63 q-12 -86 0.5 -174 q12.5 -88 63.5 -148.5 q51 -60.5 156 -62.5 q80 -3 145.5 29 q65.5 32 122.5 85 l52 -75 ZM538 999 q-106 4 -173 -50 q-67 -54 -104.5 -139.5 q-37.5 -85.5 -57.5 -173.5 l514 0 l5 29 q9 73 -0.5 149 q-9.5 76 -52 128.5 q-42.5 52.5 -131.5 56.5 ZM508 1255 l230 280 l151 -1 l-269 -278 l-112 -1 Z" /><glyph glyph-name="ecircumflex" unicode="ê" d="M725 123 q-125 -147 -329 -144 q-139 3 -213.5 76 q-74.5 73 -98.5 184.5 q-24 111.5 -11 230.5 l15 124 q17 124 69.5 242.5 q52.5 118.5 148 194.5 q95.5 76 239.5 71 q134 -4 198.5 -76.5 q64.5 -72.5 80 -181 q15.5 -108.5 2.5 -219.5 l-13 -93 l-618 0 l-10 -63 q-12 -86 0.5 -174 q12.5 -88 63.5 -148.5 q51 -60.5 156 -62.5 q80 -3 145.5 29 q65.5 32 122.5 85 l52 -75 ZM538 999 q-106 4 -173 -50 q-67 -54 -104.5 -139.5 q-37.5 -85.5 -57.5 -173.5 l514 0 l5 29 q9 73 -0.5 149 q-9.5 76 -52 128.5 q-42.5 52.5 -131.5 56.5 ZM657 1526 l161 -258 l-1 -12 l-98 1 l-100 181 l-166 -180 l-98 -1 l1 14 l233 254 l68 1 Z" /><glyph glyph-name="iacute" unicode="í" d="M348 1082 l-188 -1082 l-111 0 l188 1082 l111 0 ZM248 1243 l230 280 l151 -1 l-269 -278 l-112 -1 Z" /><glyph glyph-name="oacute" unicode="ó" d="M86 485 l14 111 q17 125 71 243 q54 118 149.5 193 q95.5 75 239.5 71 q137 -4 208.5 -82.5 q71.5 -78.5 92.5 -194 q21 -115.5 8 -229.5 l-14 -112 q-17 -124 -71 -242.5 q-54 -118.5 -150 -193.5 q-96 -75 -239 -71 q-137 4 -208.5 83 q-71.5 79 -92.5 194.5 q-21 115.5 -8 229.5 ZM211 597 l-15 -114 q-9 -80 0 -172 q9 -92 56 -158.5 q47 -66.5 151 -70.5 q112 -4 183 57.5 q71 61.5 108 156.5 q37 95 50 189 l15 113 q9 79 -0.5 171 q-9.5 92 -56 159 q-46.5 67 -150.5 71 q-109 4 -180 -58.5 q-71 -62.5 -109.5 -157 q-38.5 -94.5 -51.5 -186.5 ZM513 1254 l230 280 l151 -1 l-269 -278 l-112 -1 Z" /><glyph glyph-name="ocircumflex" unicode="ô" d="M86 485 l14 111 q17 125 71 243 q54 118 149.5 193 q95.5 75 239.5 71 q137 -4 208.5 -82.5 q71.5 -78.5 92.5 -194 q21 -115.5 8 -229.5 l-14 -112 q-17 -124 -71 -242.5 q-54 -118.5 -150 -193.5 q-96 -75 -239 -71 q-137 4 -208.5 83 q-71.5 79 -92.5 194.5 q-21 115.5 -8 229.5 ZM211 597 l-15 -114 q-9 -80 0 -172 q9 -92 56 -158.5 q47 -66.5 151 -70.5 q112 -4 183 57.5 q71 61.5 108 156.5 q37 95 50 189 l15 113 q9 79 -0.5 171 q-9.5 92 -56 159 q-46.5 67 -150.5 71 q-109 4 -180 -58.5 q-71 -62.5 -109.5 -157 q-38.5 -94.5 -51.5 -186.5 ZM662 1525 l161 -258 l-1 -12 l-98 1 l-100 181 l-166 -180 l-98 -1 l1 14 l233 254 l68 1 Z" /><glyph glyph-name="otilde" unicode="õ" d="M86 485 l14 111 q17 125 71 243 q54 118 149.5 193 q95.5 75 239.5 71 q137 -4 208.5 -82.5 q71.5 -78.5 92.5 -194 q21 -115.5 8 -229.5 l-14 -112 q-17 -124 -71 -242.5 q-54 -118.5 -150 -193.5 q-96 -75 -239 -71 q-137 4 -208.5 83 q-71.5 79 -92.5 194.5 q-21 115.5 -8 229.5 ZM211 597 l-15 -114 q-9 -80 0 -172 q9 -92 56 -158.5 q47 -66.5 151 -70.5 q112 -4 183 57.5 q71 61.5 108 156.5 q37 95 50 189 l15 113 q9 79 -0.5 171 q-9.5 92 -56 159 q-46.5 67 -150.5 71 q-109 4 -180 -58.5 q-71 -62.5 -109.5 -157 q-38.5 -94.5 -51.5 -186.5 ZM828 1500 l78 -5 q-10 -75 -52 -146.5 q-42 -71.5 -131 -70.5 q-47 0 -79.5 28.5 q-32.5 28.5 -64 56.5 q-31.5 28 -75.5 27 q-50 -1 -72.5 -39.5 q-22.5 -38.5 -32.5 -79.5 l-84 4 q11 74 53 145.5 q42 71.5 131 70.5 q47 0 79.5 -28.5 q32.5 -28.5 64.5 -57 q32 -28.5 76 -27.5 q50 1 74.5 41 q24.5 40 34.5 81 Z" /><glyph glyph-name="uacute" unicode="ú" d="M604 0 l28 130 q-113 -155 -295 -151 q-111 3 -163.5 68 q-52.5 65 -64 158.5 q-11.5 93.5 -2.5 183.5 l116 693 l111 0 l-116 -696 q-6 -58 -2 -127 q4 -69 36 -119.5 q32 -50.5 109 -53.5 q96 -3 180 53.5 q84 56.5 112 151.5 l135 791 l110 0 l-187 -1082 l-107 0 ZM526 1256 l230 280 l151 -1 l-269 -278 l-112 -1 Z" /><glyph glyph-name="udieresis" unicode="ü" d="M604 0 l28 130 q-113 -155 -295 -151 q-111 3 -163.5 68 q-52.5 65 -64 158.5 q-11.5 93.5 -2.5 183.5 l116 693 l111 0 l-116 -696 q-6 -58 -2 -127 q4 -69 36 -119.5 q32 -50.5 109 -53.5 q96 -3 180 53.5 q84 56.5 112 151.5 l135 791 l110 0 l-187 -1082 l-107 0 ZM755 1395 q2 33 26.5 57.5 q24.5 24.5 58.5 25.5 q35 0 57.5 -24 q22.5 -24 19.5 -59 q-2 -34 -26.5 -57.5 q-24.5 -23.5 -58.5 -24.5 q-35 0 -57 23.5 q-22 23.5 -20 58.5 ZM331 1396 q2 33 26.5 57 q24.5 24 58.5 25 q34 0 57 -23.5 q23 -23.5 21 -58.5 q-3 -33 -27.5 -57 q-24.5 -24 -58.5 -25 q-35 0 -57 23.5 q-22 23.5 -20 58.5 Z" /></font>
</defs>
</svg>
